Coordinates
version=1
nRows=23
nColumns=28
inDegrees=yes

Units are S.I. units (second, meters, Newtons, ...)
Angles are in degrees.

endheader
time	pelvis_tilt	pelvis_list	pelvis_rotation	pelvis_tx	pelvis_ty	pelvis_tz	hip_flexion_r	hip_adduction_r	hip_rotation_r	knee_angle_r	ankle_angle_r	subtalar_angle_r	mtp_angle_r	hip_flexion_l	hip_adduction_l	hip_rotation_l	knee_angle_l	socket_flexion	socket_adduction	socket_rotation	socket_tx	socket_ty	socket_tz	foot_flex	lumbar_extension	lumbar_bending	lumbar_rotation
      0.00000000	     -2.70715536	     -1.39390344	     -3.81928001	     -0.78984398	      0.97077148	      0.26015102	    -20.40107518	      4.20018362	      6.60932909	     -2.44681056	     -2.48336950	    -19.71539180	     13.46984181	     23.57446958	      0.05480525	      0.90614694	     -0.78930956	      0.00000000	      0.00000000	      0.00000000	      0.00000000	     -0.00164603	      0.00000000	     -1.08242278	     -6.31703625	      0.62348043	      2.37331926
      0.00416667	     -2.65972376	     -1.32623960	     -3.89241523	     -0.78436245	      0.96960430	      0.26002059	    -20.65492092	      4.09304593	      6.67648161	     -2.66658066	     -2.55160765	    -19.76304550	     13.49366486	     23.61900206	      0.13124999	      0.98439632	     -1.29031991	      0.00000000	      0.00000000	      0.00000000	      0.00000000	     -0.00210511	      0.00000000	     -1.52609654	     -6.34310606	      0.51789728	      2.39146737
      0.00833333	     -2.61195032	     -1.24968109	     -3.95437695	     -0.77861148	      0.96841975	      0.25986333	    -20.90367994	      3.98109181	      6.72119488	     -2.92420634	     -2.60076117	    -19.82898722	     13.52357416	     23.65245582	      0.22018539	      1.10088054	     -1.79047057	      0.00000000	      0.00000000	      0.00000000	      0.00000000	     -0.00258010	      0.00000000	     -2.04212708	     -6.35923049	      0.40624053	      2.43603581
      0.01250000	     -2.44715018	     -1.09815903	     -3.92082662	     -0.77255728	      0.96735445	      0.25967425	    -21.24444006	      3.82746463	      6.50599169	     -3.28135629	     -2.67598942	    -20.26413419	     13.71451919	     23.51849462	      0.42705057	      1.27211177	     -2.21507058	      0.00000000	      0.00000000	      0.00000000	      0.00000000	     -0.00303690	      0.00000000	     -2.67894120	     -6.47944515	      0.14926228	      2.68988745
      0.01666667	     -2.42169756	     -1.01992341	     -4.01192041	     -0.76646284	      0.96611352	      0.25950616	    -21.49031171	      3.69667685	      6.62013775	     -3.51674270	     -2.75044586	    -20.26089789	     13.75729223	     23.60707560	      0.51185917	      1.35831432	     -2.83260609	      0.00000000	      0.00000000	      0.00000000	      0.00000000	     -0.00359156	      0.00000000	     -3.15055696	     -6.48517995	      0.04470777	      2.70689225
      0.02083333	     -2.38857643	     -0.92630579	     -4.05289489	     -0.76023262	      0.96489144	      0.25927836	    -21.71111304	      3.57503794	      6.68397990	     -3.83842002	     -2.82613691	    -20.29806751	     13.80863077	     23.67945056	      0.63604581	      1.45284986	     -3.43374421	      0.00000000	      0.00000000	      0.00000000	      0.00000000	     -0.00413610	      0.00000000	     -3.71080001	     -6.48350028	     -0.09221256	      2.75282279
      0.02500000	     -2.27184602	     -0.72063182	     -4.06277664	     -0.75373362	      0.96382770	      0.25911088	    -22.00528173	      3.34237456	      6.50631804	     -4.15872610	     -3.45076346	    -21.19975142	     16.08688441	     23.61704379	      0.88461475	      1.53003461	     -3.98131771	      0.00000000	      0.00000000	      0.00000000	      0.00000000	     -0.00460337	      0.00000000	     -4.31269538	     -6.55006356	     -0.40798966	      2.99062847
      0.02916667	     -2.24694909	     -0.62943895	     -4.09021736	     -0.74730635	      0.96265857	      0.25885251	    -22.19911304	      3.22970322	      6.58116528	     -4.51256442	     -3.52584394	    -21.18280822	     16.09899855	     23.71691236	      1.01404659	      1.59235959	     -4.66596190	      0.00000000	      0.00000000	      0.00000000	      0.00000000	     -0.00520166	      0.00000000	     -4.83525311	     -6.54721708	     -0.54180986	      3.00845374
      0.03333333	     -2.22201366	     -0.51104520	     -4.10023260	     -0.74085061	      0.96156919	      0.25859309	    -22.34464640	      3.10248770	      6.59670177	     -4.94985754	     -3.62455890	    -21.19505308	     16.11182067	     23.81505513	      1.17829460	      1.66803132	     -5.36054969	      0.00000000	      0.00000000	      0.00000000	      0.00000000	     -0.00574302	      0.00000000	     -5.37801264	     -6.54566462	     -0.71662135	      3.04192841
      0.03750000	     -2.19101484	     -0.33007532	     -4.14176938	     -0.73410199	      0.96050980	      0.25790611	    -22.49471558	      2.85135479	      6.59057388	     -5.40142696	     -3.74683966	    -21.20543725	     16.12889896	     23.88633141	      1.42211106	      1.77655037	     -6.06565111	      0.00000000	      0.00000000	      0.00000000	      0.00000000	     -0.00633328	      0.00000000	     -5.86555573	     -6.52612234	     -0.91189156	      3.08457796
      0.04166667	     -2.24730564	     -0.00488871	     -4.00663789	     -0.72746490	      0.95948182	      0.25761318	    -22.39403427	      2.56828983	      6.01174108	     -6.11019191	     -3.99720454	    -21.32511840	     16.27549833	     24.06935674	      1.83468458	      1.82053224	     -6.75988897	      0.00000000	      0.00000000	      0.00000000	      0.00000000	     -0.00643695	      0.00000000	     -6.32971006	     -6.38222876	     -1.37140338	      3.18545716
      0.04583333	     -2.22108029	      0.11729873	     -3.95020041	     -0.72101011	      0.95865262	      0.25723568	    -22.51996008	      2.46520521	      6.11860866	     -6.54903555	     -4.14345925	    -21.28781517	     16.31338626	     24.18956327	      2.03095752	      1.86046899	     -7.53513509	      0.00000000	      0.00000000	      0.00000000	      0.00000000	     -0.00688283	      0.00000000	     -6.77200751	     -6.40751309	     -1.55770343	      3.18366787
      0.05000000	     -2.19752478	      0.27686189	     -3.87218462	     -0.71459126	      0.95791949	      0.25687766	    -22.54168496	      2.33920460	      6.10152368	     -7.15693609	     -4.37528187	    -21.28803776	     16.35077612	     24.31690351	      2.26770202	      1.91550473	     -8.32656546	      0.00000000	      0.00000000	      0.00000000	      0.00000000	     -0.00720506	      0.00000000	     -7.16455656	     -6.43452004	     -1.79336820	      3.17872704
      0.05416667	     -2.18361985	      0.45384969	     -3.77717458	     -0.70814126	      0.95726719	      0.25647244	    -22.50107987	      2.19732975	      6.00721802	     -7.84577277	     -4.66804158	    -21.30696152	     16.38894832	     24.45996951	      2.52920532	      1.96099135	     -9.14387281	      0.00000000	      0.00000000	      0.00000000	      0.00000000	     -0.00747526	      0.00000000	     -7.49439267	     -6.45024874	     -2.05297616	      3.16839949
      0.05833333	     -2.81940253	      0.66782140	     -3.34003070	     -0.70141275	      0.95565964	      0.25555480	    -21.56812713	      2.13372275	      4.98172695	     -8.91651768	     -5.25969072	    -21.33166975	     17.47297867	     25.39767423	      2.94094396	      2.33839549	    -10.15149062	      0.00000000	      0.00000000	      0.00000000	      0.00000000	     -0.00743875	      0.00000000	     -7.61723741	     -5.63230759	     -2.29844114	      2.80871836
      0.06250000	     -2.74879599	      0.81564757	     -3.27907984	     -0.69494262	      0.95527405	      0.25510247	    -21.60011643	      1.99812600	      5.10480020	     -9.54565013	     -5.52313228	    -21.28540107	     17.52635793	     25.45324821	      3.16765119	      2.38647042	    -10.96440202	      0.00000000	      0.00000000	      0.00000000	      0.00000000	     -0.00778135	      0.00000000	     -7.87059383	     -5.72576671	     -2.50755589	      2.79814722
      0.06666667	     -3.11683896	      1.01688907	     -3.01491589	     -0.68839868	      0.95425502	      0.25435257	    -20.85500716	      1.83487348	      4.28042493	    -10.71036142	     -6.19514930	    -21.14367759	     19.30160254	     26.06029282	      3.51405305	      2.57875990	    -11.93025321	      0.00000000	      0.00000000	      0.00000000	      0.00000000	     -0.00778099	      0.00000000	     -7.88685679	     -5.27756222	     -2.74724378	      2.53475136
      0.07083333	     -3.04846150	      1.28013995	     -2.91552405	     -0.68179502	      0.95407442	      0.25386306	    -20.71857914	      1.56567448	      4.04748069	    -11.60980107	     -6.77729946	    -21.11811475	     19.50052345	     26.08689756	      3.86831159	      2.52724852	    -12.72404863	      0.00000000	      0.00000000	      0.00000000	      0.00000000	     -0.00787202	      0.00000000	     -7.94201598	     -5.33223231	     -3.09920151	      2.55781384
      0.07500000	     -2.96962597	      1.45228648	     -2.78841874	     -0.67527216	      0.95399364	      0.25335507	    -20.67342555	      1.44208883	      4.19567962	    -12.35332259	     -7.16362995	    -21.03452713	     19.53789927	     26.10809597	      4.14282503	      2.59023346	    -13.53746773	      0.00000000	      0.00000000	      0.00000000	      0.00000000	     -0.00805161	      0.00000000	     -7.99780828	     -5.43689371	     -3.35636823	      2.53582845
      0.07916667	     -2.98103185	      1.71248272	     -2.67741051	     -0.66870134	      0.95384831	      0.25279165	    -20.23297569	      1.13123902	      3.60387585	    -13.58916352	     -8.10822474	    -20.96600597	     19.67485203	     26.23078319	      4.49271062	      2.50143618	    -14.38470509	      0.00000000	      0.00000000	      0.00000000	      0.00000000	     -0.00798587	      0.00000000	     -7.79683532	     -5.39824765	     -3.68813556	      2.46927674
      0.08333333	     -3.16657875	      1.99401934	     -2.43530925	     -0.66203147	      0.95351592	      0.25201011	    -19.69426700	      0.85326534	      3.12770905	    -14.67256702	     -8.95303121	    -20.76426422	     20.10995517	     26.55757121	      4.91922796	      2.59986375	    -15.26559726	      0.00000000	      0.00000000	      0.00000000	      0.00000000	     -0.00782390	      0.00000000	     -7.66391213	     -5.14323338	     -4.05287488	      2.32863662
      0.08750000	     -3.50408511	      2.11690288	     -2.15422587	     -0.65563367	      0.95298244	      0.25097721	    -18.84064742	      0.71610557	      2.61929218	    -15.99995274	     -9.52648892	    -20.16833623	     22.03654441	     27.09807211	      5.21343080	      2.78312297	    -16.23041134	      0.00000000	      0.00000000	      0.00000000	      0.00000000	     -0.00770157	      0.00000000	     -7.44070470	     -4.77606616	     -4.16651717	      2.01368087
      0.09166667	     -3.44079207	      2.43427066	     -2.01538217	     -0.64894693	      0.95320482	      0.25035447	    -18.50951937	      0.34777062	      2.30217019	    -17.13043951	    -10.52177677	    -19.97798802	     22.23580154	     27.07822483	      5.63349418	      2.69476900	    -17.00126007	      0.00000000	      0.00000000	      0.00000000	      0.00000000	     -0.00750169	      0.00000000	     -7.15251727	     -4.81268151	     -4.58158923	      2.01457864
